<svg width="18" height="18" viewBox="0 0 18 18" fill="none" xmlns="http://www.w3.org/2000/svg">
<path fill-rule="evenodd" clip-rule="evenodd" d="M16.8402 15.7327C17.1899 15.7327 17.4738 16.0166 17.4738 16.3663C17.4738 16.7161 17.1899 16.9999 16.8402 16.9999H10.7129C10.3632 16.9999 10.0793 16.7161 10.0793 16.3663C10.0793 16.0166 10.3632 15.7327 10.7129 15.7327H16.8402ZM12.9253 1.55219C12.9675 1.58514 14.3808 2.68336 14.3808 2.68336C14.8945 2.98918 15.2957 3.53575 15.4478 4.18286C15.599 4.82321 15.4892 5.48384 15.1369 6.04224C15.1346 6.04597 15.1322 6.04965 15.1241 6.0606L15.1177 6.06905C15.0605 6.14441 14.812 6.45872 13.5574 8.03053C13.5458 8.05113 13.5326 8.07042 13.5181 8.08917C13.497 8.1168 13.474 8.1422 13.4494 8.16533C13.3638 8.27307 13.2734 8.38628 13.1784 8.50531L12.9859 8.74646C12.5886 9.24402 12.1173 9.83403 11.5582 10.5338L11.2713 10.893C10.1919 12.2439 8.8096 13.9736 7.03878 16.189C6.65102 16.6722 6.06981 16.9535 5.44551 16.9611L2.37132 17H2.36288C2.06973 17 1.81461 16.7989 1.74618 16.5126L1.0543 13.5803C0.911529 12.9729 1.05345 12.3461 1.4429 11.8595L9.40081 1.90616C9.40419 1.90278 9.40673 1.89855 9.41011 1.89517C10.2828 0.85186 11.8608 0.698108 12.9253 1.55219ZM8.51355 5.044L2.43215 12.651C2.28769 12.8318 2.23447 13.065 2.28769 13.2888L2.86299 15.7261L5.4303 15.694C5.67445 15.6914 5.90001 15.5824 6.04954 15.3966C6.81955 14.4332 7.78731 13.2223 8.7823 11.9772L9.13433 11.5367L9.48695 11.0954C10.4201 9.92763 11.342 8.7738 12.1133 7.80804L8.51355 5.044ZM10.3858 2.70364L9.30512 4.05391L12.9046 6.81716C13.5974 5.94936 14.0532 5.37781 14.0953 5.32333C14.2338 5.09861 14.2879 4.78097 14.2153 4.47516C14.1409 4.16174 13.9458 3.89563 13.6645 3.72583C13.6045 3.68444 12.181 2.57945 12.1371 2.54482C11.6015 2.11566 10.8201 2.19001 10.3858 2.70364Z" fill="#EB2333" stroke="#EDEDEF" stroke-width="0.3"/>
</svg>
