<svg width="15" height="16" viewBox="0 0 15 16" fill="none" xmlns="http://www.w3.org/2000/svg">
<path fill-rule="evenodd" clip-rule="evenodd" d="M13.315 5.37584C13.6507 5.40304 13.901 5.69185 13.8741 6.02225C13.8693 6.07665 13.4288 11.4455 13.1753 13.6976C13.0176 15.0952 12.0798 15.9456 10.6642 15.9712C9.58089 15.9896 8.53581 16 7.5143 16C6.41315 16 5.33964 15.988 4.27749 15.9664C2.91873 15.94 1.97849 15.0728 1.8249 13.7032C1.56891 11.4311 1.13089 6.07585 1.12683 6.02225C1.0992 5.69185 1.3495 5.40224 1.68512 5.37584C2.01587 5.36704 2.31493 5.59584 2.34175 5.92545C2.34434 5.96017 2.52341 8.14711 2.71855 10.3109L2.75774 10.7427C2.85602 11.8182 2.95565 12.8517 3.03657 13.5712C3.12352 14.3496 3.55017 14.7512 4.30269 14.7664C6.33433 14.8088 8.40741 14.8112 10.6422 14.7712C11.4419 14.756 11.8742 14.3624 11.9636 13.5656C12.2155 11.3303 12.6544 5.97985 12.6592 5.92545C12.686 5.59584 12.9827 5.36544 13.315 5.37584ZM9.2199 0C9.96592 0 10.6217 0.495207 10.8143 1.20482L11.0208 2.21363C11.0875 2.54434 11.3823 2.78585 11.7236 2.79115L14.3905 2.79124C14.7269 2.79124 15 3.06005 15 3.39125C15 3.72246 14.7269 3.99126 14.3905 3.99126L11.7474 3.99114C11.7433 3.99122 11.7392 3.99126 11.7351 3.99126L11.7152 3.99046L3.28444 3.99116C3.27789 3.99123 3.27133 3.99126 3.26476 3.99126L3.25225 3.99046L0.609492 3.99126C0.273052 3.99126 0 3.72246 0 3.39125C0 3.06005 0.273052 2.79124 0.609492 2.79124L3.27582 2.79044L3.35791 2.78533C3.6637 2.74627 3.91784 2.51764 3.9799 2.21363L4.17738 1.24082C4.3781 0.495207 5.03392 0 5.77993 0H9.2199ZM9.2199 1.20002H5.77993C5.5849 1.20002 5.41342 1.32882 5.36385 1.51362L5.1745 2.44964C5.15044 2.5682 5.1154 2.68245 5.07055 2.79146H9.92953C9.88463 2.68245 9.84951 2.5682 9.82533 2.44964L9.62786 1.47682C9.58641 1.32882 9.41494 1.20002 9.2199 1.20002Z" fill="#EB2333"/>
</svg>
