<svg width="20" height="24" viewBox="0 0 20 24" fill="none" xmlns="http://www.w3.org/2000/svg">
<path d="M3.35199 3.04802L3.35189 3.0481L0.933962 5.17447L0.899966 5.20436L0.9 5.24964L0.90589 13.1307L0.90589 13.1308L0.914726 21.0119L0.91475 21.0339L0.924025 21.0539L1.0006 21.2188L1.00087 21.2194L1.00087 21.2194C1.1109 21.4524 1.31037 21.6519 1.54338 21.7619L1.54396 21.7622L1.54397 21.7622L1.70889 21.8387L1.72892 21.848H1.751H5.40293H9.05487H9.14242L9.15399 21.7613L9.17149 21.63C9.18353 21.5545 9.20121 21.4188 9.21025 21.323L9.23069 21.1565L9.24447 21.0443H9.13144H5.53546C5.36162 21.0443 5.19587 21.0443 5.03781 21.0443C3.39446 21.0445 2.58327 21.0446 2.17103 21.0249C1.93996 21.0139 1.85205 20.9968 1.81431 20.9798C1.80797 20.9769 1.80442 20.9755 1.80157 20.9731C1.79464 20.9675 1.79177 20.9568 1.76272 20.9096M3.35199 3.04802L1.67737 20.9617M3.35199 3.04802L5.77287 0.924595L5.80122 0.899729L5.83893 0.899773L10.8486 0.905663H10.8486L15.8582 0.914499L15.8813 0.914541L15.902 0.924679L16.0404 0.992407L16.0417 0.993048C16.2677 1.10764 16.4579 1.28997 16.5657 1.50224C16.5657 1.50226 16.5657 1.50228 16.5657 1.50229L16.654 1.676L16.6648 1.69723L16.6649 1.72104L16.6737 4.77511V4.77522C16.6752 5.61609 16.6759 6.38041 16.6759 6.93453C16.6759 7.21158 16.6757 7.43615 16.6754 7.59148C16.6752 7.66912 16.675 7.7296 16.6747 7.77071L16.6742 7.8181L16.6739 7.83167L16.6736 7.83808L16.6736 7.83811C16.6736 7.839 16.6734 7.84198 16.6729 7.84558L16.6729 7.84565C16.6727 7.84696 16.672 7.85221 16.6702 7.85863C16.6691 7.86263 16.6649 7.87358 16.6615 7.88035C16.6524 7.89414 16.6099 7.92564 16.5737 7.93242C16.566 7.93242 16.5599 7.93151 16.5582 7.93125L16.5582 7.93125L16.5518 7.93012L16.5437 7.92827L16.528 7.92406C16.5164 7.92081 16.5009 7.91627 16.483 7.91084C16.447 7.89998 16.3994 7.88511 16.349 7.86879C16.2498 7.83768 16.1259 7.81462 16.076 7.81462H15.9611H15.8613L15.8611 7.71482L15.8553 4.76981V4.76971L15.8465 1.86685L15.7796 1.80195L15.7796 1.80198L15.7774 1.79977L15.7126 1.73289L10.8807 1.72414H10.8807L6.10668 1.71837M3.35199 3.04802L6.10668 1.71837M1.76272 20.9096C1.76266 20.9095 1.7626 20.9094 1.76254 20.9093L1.67737 20.9617M1.76272 20.9096C1.76278 20.9097 1.76284 20.9098 1.76289 20.9099L1.67737 20.9617M1.76272 20.9096C1.7624 20.9091 1.7621 20.9086 1.76182 20.9081C1.75878 20.9032 1.75774 20.9015 1.75549 20.8915C1.75171 20.8747 1.74722 20.8424 1.74314 20.7755C1.73504 20.6429 1.72952 20.3942 1.72583 19.9066C1.71847 18.933 1.71847 17.017 1.71847 13.1984V5.63524M1.67737 20.9617C1.61847 20.8645 1.61847 20.8351 1.61847 13.1984V5.63524H1.71847M1.71847 5.63524H3.35609C3.92473 5.63524 4.37157 5.63229 4.68902 5.62675C4.84767 5.62399 4.97455 5.62056 5.06838 5.61651C5.15848 5.61261 5.2266 5.60789 5.26112 5.60079L5.26141 5.60073C5.37776 5.57641 5.50584 5.51211 5.61785 5.43445C5.73021 5.35654 5.83609 5.25846 5.90391 5.15842L5.90421 5.15799C5.94976 5.09003 5.98951 5.02751 6.01968 4.94615C6.04972 4.86514 6.06846 4.77061 6.08085 4.6378C6.10533 4.3753 6.10668 3.93914 6.10668 3.11436V1.71837M1.71847 5.63524L6.10668 1.71837" fill="black" stroke="black" stroke-width="0.2"/>
<path d="M3.93797 8.15058C3.77304 8.25072 3.72298 8.48043 3.82606 8.65125C3.94681 8.84563 3.61695 8.83385 8.78856 8.83385C13.9602 8.83385 13.6303 8.84563 13.7511 8.65125C13.8571 8.47749 13.8041 8.24777 13.6362 8.14764C13.5567 8.10052 13.2239 8.09757 8.78267 8.09757C4.34734 8.10052 4.0116 8.10346 3.93797 8.15058Z" fill="black"/>
<path d="M18.3898 9.80275C18.381 9.81748 18.3869 9.83809 18.4045 9.84988C18.4222 9.86166 18.4281 9.88227 18.4193 9.897C18.4104 9.91172 18.4222 9.91467 18.4516 9.90289C18.4958 9.88816 18.4958 9.88227 18.4516 9.85871C18.4251 9.84399 18.4104 9.82042 18.4193 9.80275C18.431 9.78803 18.431 9.77625 18.4222 9.77625C18.4134 9.77625 18.4016 9.78803 18.3898 9.80275Z" fill="black"/>
<path d="M14.8817 9.98856C14.8257 10.0592 14.8169 10.1211 14.8611 10.1211C14.8876 10.1211 14.8993 10.1034 14.8876 10.0769C14.8787 10.0534 14.8876 10.0151 14.9052 9.99445C14.9229 9.97089 14.9317 9.95322 14.9229 9.95322C14.917 9.95322 14.8964 9.97089 14.8817 9.98856Z" fill="black"/>
<path d="M3.97569 10.875C3.87556 10.9251 3.76953 11.0929 3.76953 11.2019C3.76953 11.252 3.79604 11.3344 3.82843 11.3875C3.94918 11.5877 3.58988 11.573 8.57594 11.573H13.0908L13.2911 11.2284C13.4383 10.9751 13.4795 10.878 13.453 10.8603C13.4324 10.8485 11.309 10.8367 8.73204 10.8367C5.04476 10.8367 4.03459 10.8456 3.97569 10.875Z" fill="black"/>
<path d="M18.074 12.2535C18.0151 12.2859 18.0033 12.3389 18.0563 12.3389C18.074 12.3389 18.0799 12.33 18.071 12.3183C18.0593 12.3094 18.074 12.2829 18.1034 12.2623C18.1623 12.2152 18.1447 12.2093 18.074 12.2535Z" fill="black"/>
<path d="M3.98452 13.6194C3.87261 13.6665 3.76953 13.8197 3.76953 13.9375C3.76953 14.0612 3.8461 14.2026 3.94329 14.2615C4.02281 14.3086 4.29671 14.3115 7.76899 14.3115H11.5093L11.7066 13.964C11.8156 13.7755 11.9128 13.6106 11.9186 13.5959C11.9245 13.5841 10.1634 13.5752 8.00459 13.5752C4.70018 13.5782 4.06404 13.5841 3.98452 13.6194Z" fill="black"/>
<path d="M11.7328 15.5048C11.7063 15.546 11.6886 15.5843 11.6945 15.5931C11.7033 15.599 11.7298 15.5637 11.7563 15.5165C11.8182 15.4105 11.8005 15.4017 11.7328 15.5048Z" fill="black"/>
<path d="M4.06578 16.3351C3.95092 16.3587 3.85079 16.4352 3.80956 16.5412C3.75655 16.6649 3.75655 16.7386 3.81545 16.8623C3.90969 17.0625 3.72121 17.0508 6.98144 17.0449L9.93538 17.036L10.1327 16.6973C10.2446 16.5118 10.333 16.3498 10.3359 16.3351C10.3359 16.3145 4.18948 16.3115 4.06578 16.3351Z" fill="black"/>
<path d="M15.8621 17.3836V17.3567L15.8755 17.3335L16.1786 16.8098L16.1789 16.8093L16.479 16.2827L16.6599 15.9651L16.6658 16.3306L16.6747 16.8754L16.6747 16.876C16.6776 17.1743 16.6776 18.2352 16.6747 19.2305L16.6747 19.2307L16.6658 21.0419L16.6657 21.0669L16.6538 21.0889L16.5537 21.2744L16.5536 21.2747C16.4312 21.5002 16.2558 21.6622 16.0161 21.7711C15.9794 21.7887 15.9435 21.8053 15.8894 21.8174C15.8377 21.829 15.7722 21.8359 15.674 21.8407C15.479 21.8504 15.1327 21.8526 14.4604 21.857L14.446 21.8571L14.4458 21.8571C13.6863 21.86 12.9076 21.86 12.7209 21.8571L12.7209 21.8571L12.7199 21.857L12.3812 21.8482L12.0992 21.8408L12.3228 21.6689L12.7175 21.3656L12.7175 21.3656L12.7179 21.3653L13.1125 21.0649L13.1393 21.0445H13.1731H14.4071C15.093 21.0445 15.4313 21.0435 15.6135 21.0213C15.7037 21.0103 15.7409 20.9954 15.7603 20.9827C15.7781 20.971 15.7899 20.9558 15.8175 20.9104C15.8266 20.8949 15.8321 20.8851 15.8376 20.8551C15.8443 20.8187 15.8498 20.7572 15.8537 20.6394C15.8613 20.4056 15.8621 19.9719 15.8621 19.1241V17.3836Z" fill="black" stroke="black" stroke-width="0.2"/>
<path d="M12.0886 19.1711C12.0798 19.1888 12.1063 19.2153 12.1475 19.23C12.1976 19.2477 12.2182 19.2712 12.2035 19.2948C12.1917 19.3154 12.1917 19.3242 12.2064 19.3124C12.2182 19.3007 12.2535 19.3183 12.283 19.3537C12.3154 19.3861 12.3389 19.4037 12.3389 19.3861C12.3389 19.3714 12.3066 19.3272 12.2653 19.2889C12.227 19.2535 12.2005 19.2123 12.2064 19.1976C12.2153 19.1858 12.1917 19.1829 12.1564 19.1917C12.1004 19.2035 12.0974 19.2005 12.1328 19.174C12.1593 19.1534 12.1622 19.1416 12.1416 19.1416C12.124 19.1416 12.0974 19.1564 12.0886 19.1711Z" fill="black"/>
<path d="M12.6202 19.5656C12.6821 19.6098 12.7086 19.6068 12.6762 19.5568C12.6673 19.5391 12.635 19.5244 12.6084 19.5244C12.5702 19.5244 12.5702 19.5303 12.6202 19.5656Z" fill="black"/>
<path d="M12.7958 19.6101C12.7781 19.6425 12.893 19.7162 12.9224 19.6897C12.9313 19.6808 12.9224 19.672 12.9018 19.672C12.8812 19.672 12.8753 19.6602 12.8841 19.6425C12.8959 19.6249 12.8812 19.6219 12.8517 19.6337C12.8164 19.6455 12.8076 19.6425 12.8223 19.619C12.8341 19.5984 12.837 19.5836 12.8282 19.5836C12.8193 19.5836 12.8076 19.5954 12.7958 19.6101Z" fill="black"/>
<path d="M10.2674 20.3871C10.2762 20.4136 10.2969 20.4372 10.3145 20.4372C10.3293 20.4372 10.3351 20.449 10.3234 20.4637C10.3145 20.4784 10.3175 20.499 10.3322 20.5079C10.3823 20.5373 10.3558 20.4372 10.3027 20.3871C10.2497 20.34 10.2497 20.34 10.2674 20.3871Z" fill="black"/>
<path d="M10.9969 21.8131C11.0057 21.8691 11.0646 21.8691 11.1147 21.8161C11.1353 21.7925 11.1323 21.7896 11.1058 21.8043C11.0852 21.8161 11.0499 21.8131 11.0263 21.7925C10.9939 21.766 10.988 21.7719 10.9969 21.8131Z" fill="black"/>
<path d="M10.2015 22.4696C10.1897 22.4873 10.1721 22.4931 10.1603 22.4873C10.1485 22.4784 10.1367 22.4902 10.1367 22.5138C10.1367 22.5521 10.1456 22.5521 10.1868 22.5138C10.2133 22.4902 10.2457 22.4784 10.2604 22.4902C10.2722 22.5049 10.2751 22.4961 10.2634 22.4755C10.2369 22.4313 10.2251 22.4313 10.2015 22.4696Z" fill="black"/>
<path d="M11.8523 21.2771L9.99689 20.1874L9.6582 23L11.8523 21.2771Z" fill="black"/>
<path d="M10.3588 17.7933L13.8707 11.6937C13.9837 11.4975 14.235 11.4312 14.43 11.5461L14.9005 11.8233L17.1598 13.1508C17.3521 13.2638 17.4176 13.5106 17.3067 13.7041L13.7959 19.8282C13.6827 20.0256 13.4297 20.0919 13.2343 19.9753L10.503 18.3459C10.3121 18.232 10.2479 17.986 10.3588 17.7933Z" fill="black"/>
<path d="M11.8523 21.2771L9.99689 20.1874L9.6582 23L11.8523 21.2771Z" stroke="black" stroke-width="0.0214192"/>
<path d="M10.3588 17.7933L13.8707 11.6937C13.9837 11.4975 14.235 11.4312 14.43 11.5461L14.9005 11.8233L17.1598 13.1508C17.3521 13.2638 17.4176 13.5106 17.3067 13.7041L13.7959 19.8282C13.6827 20.0256 13.4297 20.0919 13.2343 19.9753L10.503 18.3459C10.3121 18.232 10.2479 17.986 10.3588 17.7933Z" stroke="black" stroke-width="0.0214192"/>
<path d="M18.9521 10.0719L16.2064 8.47608C16.014 8.36425 15.7674 8.42772 15.6529 8.61855L14.5716 10.4208C14.4541 10.6166 14.5207 10.8708 14.7191 10.9838L17.498 12.5667C17.6916 12.677 17.938 12.6111 18.0506 12.4188L19.0988 10.6294C19.2127 10.435 19.1469 10.1851 18.9521 10.0719Z" fill="black" stroke="black" stroke-width="0.0214192"/>
</svg>
