<svg width="18" height="16" viewBox="0 0 18 16" fill="none" xmlns="http://www.w3.org/2000/svg">
<path fill-rule="evenodd" clip-rule="evenodd" d="M1 3.33333V12.6667C1 13.2855 1.24583 13.879 1.68342 14.3166C2.121 14.7542 2.71449 15 3.33333 15H15C15.6188 15 16.2123 14.7542 16.6499 14.3166C17.0875 13.879 17.3333 13.2855 17.3333 12.6667V3.33333C17.3333 2.71449 17.0875 2.121 16.6499 1.68342C16.2123 1.24583 15.6188 1 15 1H3.33333C2.71449 1 2.121 1.24583 1.68342 1.68342C1.24583 2.121 1 2.71449 1 3.33333Z" stroke="#EB2333" stroke-linecap="round" stroke-linejoin="round"/>
<path d="M3.33301 4.5L9.16634 8L14.9997 4.5" stroke="#EB2333" stroke-linecap="round" stroke-linejoin="round"/>
</svg>
