<svg width="16" height="18" viewBox="0 0 16 18" fill="none" xmlns="http://www.w3.org/2000/svg">
<path d="M3.40039 8.1999C3.40039 5.9375 3.40039 4.8055 4.10359 4.1031C4.80599 3.3999 5.93799 3.3999 8.20039 3.3999H10.6004C12.8628 3.3999 13.9948 3.3999 14.6972 4.1031C15.4004 4.8055 15.4004 5.9375 15.4004 8.1999V12.1999C15.4004 14.4623 15.4004 15.5943 14.6972 16.2967C13.9948 16.9999 12.8628 16.9999 10.6004 16.9999H8.20039C5.93799 16.9999 4.80599 16.9999 4.10359 16.2967C3.40039 15.5943 3.40039 14.4623 3.40039 12.1999V8.1999Z" stroke="#EB2333"/>
<path d="M3.4 14.6C2.76348 14.6 2.15303 14.3471 1.70294 13.8971C1.25286 13.447 1 12.8365 1 12.2V7.4C1 4.3832 1 2.8744 1.9376 1.9376C2.8744 1 4.3832 1 7.4 1H10.6C11.2365 1 11.847 1.25286 12.2971 1.70294C12.7471 2.15303 13 2.76348 13 3.4" stroke="#EB2333"/>
</svg>
