<svg width="22" height="24" viewBox="0 0 22 24" fill="none" xmlns="http://www.w3.org/2000/svg">
<path fill-rule="evenodd" clip-rule="evenodd" d="M11.4011 1C12.1613 1 12.9002 1.31215 13.43 1.85469C13.9588 2.40042 14.2507 3.14893 14.2284 3.90806C14.2306 4.079 14.2868 4.27648 14.3888 4.44954C14.5576 4.73621 14.8241 4.93794 15.1405 5.02075C15.4569 5.09932 15.7881 5.05685 16.0695 4.89016C17.4285 4.11404 19.158 4.57907 19.9341 5.92746L20.5956 7.07307C20.6126 7.10386 20.6275 7.13358 20.6402 7.16437C21.3431 8.49259 20.8738 10.1648 19.5679 10.9282C19.3778 11.0375 19.2239 11.1904 19.1177 11.3752C18.9531 11.6608 18.9075 12.0005 18.9903 12.3127C19.0752 12.6312 19.278 12.8956 19.5636 13.0591C20.2081 13.4296 20.689 14.0539 20.8812 14.7748C21.0734 15.4947 20.9683 16.2761 20.5935 16.9206L19.8885 18.0948C19.1124 19.4284 17.3828 19.8902 16.0376 19.113C15.8582 19.01 15.6512 18.9538 15.4452 18.9485H15.4388C15.132 18.9485 14.8166 19.0791 14.5873 19.3073C14.3548 19.5398 14.2274 19.8499 14.2295 20.179C14.2221 21.7387 12.9533 23 11.4011 23H10.0707C8.51105 23 7.24229 21.7323 7.24229 20.1726C7.24017 19.9805 7.18496 19.7809 7.08197 19.6078C6.91528 19.3169 6.6456 19.1088 6.33452 19.026C6.02556 18.9431 5.68686 18.9888 5.40869 19.1502C4.74193 19.5218 3.95732 19.612 3.23959 19.4103C2.52293 19.2075 1.90394 18.7149 1.54083 18.0619L0.877252 16.9184C0.101131 15.5722 0.562981 13.8469 1.90712 13.0697C2.28828 12.8499 2.52505 12.4401 2.52505 12.0005C2.52505 11.561 2.28828 11.1501 1.90712 10.9303C0.56192 10.1489 0.101131 8.41933 0.87619 7.07307L1.59604 5.89137C2.36154 4.55996 4.09215 4.09068 5.44161 4.86574C5.62529 4.9751 5.82489 5.03031 6.02768 5.03243C6.68913 5.03243 7.24229 4.4867 7.25291 3.81569C7.24866 3.07567 7.54064 2.36538 8.07256 1.82921C8.60661 1.2941 9.31584 1 10.0707 1H11.4011ZM11.4011 2.59259H10.0707C9.74159 2.59259 9.43369 2.72106 9.20117 2.95251C8.96972 3.18503 8.84337 3.49399 8.8455 3.82313C8.8232 5.37537 7.55444 6.62502 6.01812 6.62502C5.52548 6.61971 5.05089 6.48699 4.63894 6.24067C4.0603 5.91154 3.30435 6.11433 2.96566 6.70359L2.24688 7.88528C1.91774 8.45649 2.11947 9.21138 2.70554 9.55219C3.57509 10.0555 4.11764 10.994 4.11764 12.0005C4.11764 13.007 3.57509 13.9445 2.70342 14.4489C2.12053 14.7865 1.9188 15.5371 2.25643 16.1211L2.92638 17.2762C3.09201 17.5746 3.36275 17.7901 3.67596 17.8782C3.98811 17.9653 4.3321 17.9281 4.61877 17.7689C5.04027 17.5215 5.53079 17.393 6.02343 17.393C6.26657 17.393 6.5097 17.4238 6.74753 17.4875C7.46525 17.6808 8.08849 18.1607 8.45797 18.8051C8.69792 19.2096 8.83063 19.6821 8.83488 20.1641C8.83488 20.8543 9.3891 21.4074 10.0707 21.4074H11.4011C12.0795 21.4074 12.6337 20.8574 12.6369 20.179C12.6327 19.4294 12.9257 18.717 13.4619 18.1808C13.9906 17.6521 14.7296 17.3346 15.4685 17.3559C15.9527 17.3675 16.4188 17.4981 16.8297 17.7317C17.421 18.0704 18.1759 17.8687 18.5178 17.2847L19.2228 16.1094C19.3799 15.8387 19.4256 15.4989 19.3417 15.1857C19.2589 14.8725 19.0508 14.6007 18.7705 14.4404C18.1144 14.0624 17.6461 13.453 17.4518 12.7225C17.2597 12.0058 17.3648 11.2233 17.7396 10.5789C17.9838 10.1542 18.3416 9.79639 18.7705 9.55007C19.346 9.2135 19.5477 8.46074 19.2132 7.87467C19.1994 7.85131 19.1867 7.82689 19.1761 7.80141L18.5539 6.7227C18.2152 6.13344 17.4614 5.93065 16.87 6.26722C16.2309 6.64519 15.4707 6.75349 14.7402 6.56131C14.0108 6.37233 13.3992 5.91048 13.0181 5.25858C12.7739 4.85088 12.6412 4.37629 12.6369 3.8932C12.6465 3.53009 12.5191 3.20414 12.2876 2.96525C12.0572 2.72743 11.7334 2.59259 11.4011 2.59259ZM10.7406 8.40457C12.7228 8.40457 14.3356 10.0184 14.3356 12.0006C14.3356 13.9829 12.7228 15.5946 10.7406 15.5946C8.75833 15.5946 7.14557 13.9829 7.14557 12.0006C7.14557 10.0184 8.75833 8.40457 10.7406 8.40457ZM10.7406 9.99716C9.63638 9.99716 8.73816 10.8964 8.73816 12.0006C8.73816 13.1048 9.63638 14.002 10.7406 14.002C11.8448 14.002 12.743 13.1048 12.743 12.0006C12.743 10.8964 11.8448 9.99716 10.7406 9.99716Z" fill="black" stroke="white" stroke-width="0.5"/>
</svg>
