<svg width="17" height="17" viewBox="0 0 17 17" fill="none" xmlns="http://www.w3.org/2000/svg">
<path d="M4.25 6.375C4.08256 6.375 3.91677 6.40798 3.76208 6.47205C3.60739 6.53613 3.46683 6.63004 3.34844 6.74844C3.23004 6.86683 3.13613 7.00739 3.07205 7.16208C3.00798 7.31677 2.975 7.48256 2.975 7.65C2.975 7.81744 3.00798 7.98323 3.07205 8.13792C3.13613 8.29261 3.23004 8.43317 3.34844 8.55156C3.46683 8.66996 3.60739 8.76387 3.76208 8.82795C3.91677 8.89202 4.08256 8.925 4.25 8.925C4.58815 8.925 4.91245 8.79067 5.15156 8.55156C5.39067 8.31245 5.525 7.98815 5.525 7.65C5.525 7.31185 5.39067 6.98755 5.15156 6.74844C4.91245 6.50933 4.58815 6.375 4.25 6.375ZM4.25 8.075C4.13728 8.075 4.02918 8.03022 3.94948 7.95052C3.86978 7.87082 3.825 7.76272 3.825 7.65C3.825 7.53728 3.86978 7.42918 3.94948 7.34948C4.02918 7.26978 4.13728 7.225 4.25 7.225C4.36272 7.225 4.47082 7.26978 4.55052 7.34948C4.63022 7.42918 4.675 7.53728 4.675 7.65C4.675 7.76272 4.63022 7.87082 4.55052 7.95052C4.47082 8.03022 4.36272 8.075 4.25 8.075ZM14.875 3.4H13.6V0.425C13.6 0.312283 13.5552 0.204183 13.4755 0.12448C13.3958 0.0447767 13.2877 0 13.175 0H3.825C3.71228 0 3.60418 0.0447767 3.52448 0.12448C3.44478 0.204183 3.4 0.312283 3.4 0.425V3.4H2.125C1.56155 3.40045 1.02131 3.62448 0.622895 4.0229C0.224478 4.42131 0.000450217 4.96155 0 5.525V11.05C0.000675083 11.7261 0.269552 12.3743 0.747623 12.8524C1.22569 13.3304 1.87391 13.5993 2.55 13.6H3.4V16.575C3.4 16.6877 3.44478 16.7958 3.52448 16.8755C3.60418 16.9552 3.71228 17 3.825 17H13.175C13.2877 17 13.3958 16.9552 13.4755 16.8755C13.5552 16.7958 13.6 16.6877 13.6 16.575V13.6H14.45C15.1261 13.5993 15.7743 13.3304 16.2524 12.8524C16.7304 12.3743 16.9993 11.7261 17 11.05V5.525C16.9995 4.96155 16.7755 4.42131 16.3771 4.0229C15.9787 3.62448 15.4384 3.40045 14.875 3.4ZM4.25 0.85H12.75V3.4H4.25V0.85ZM12.75 16.15H4.25V11.05H12.75V16.15ZM16.15 11.05C16.1493 11.5007 15.97 11.9327 15.6513 12.2513C15.3327 12.57 14.9007 12.7493 14.45 12.75H13.6V10.625C13.6 10.5123 13.5552 10.4042 13.4755 10.3245C13.3958 10.2448 13.2877 10.2 13.175 10.2H3.825C3.71228 10.2 3.60418 10.2448 3.52448 10.3245C3.44478 10.4042 3.4 10.5123 3.4 10.625V12.75H2.55C2.09934 12.7493 1.66733 12.57 1.34866 12.2513C1.03 11.9327 0.850675 11.5007 0.85 11.05V5.525C0.85 5.18685 0.98433 4.86255 1.22344 4.62344C1.46255 4.38433 1.78685 4.25 2.125 4.25H14.875C15.2132 4.25 15.5375 4.38433 15.7766 4.62344C16.0157 4.86255 16.15 5.18685 16.15 5.525V11.05Z" fill="#EB2333"/>
</svg>
