<svg width="18" height="18" viewBox="0 0 18 18" fill="none" xmlns="http://www.w3.org/2000/svg">
<path d="M8.99097 5.36125e-05C4.07699 5.36125e-05 0.0719999 4.00504 0.0719999 8.91903C0.0719999 10.494 0.485999 12.024 1.26 13.374L0 18L4.72499 16.758C6.02998 17.469 7.49698 17.847 8.99097 17.847C13.905 17.847 17.9099 13.842 17.9099 8.92803C17.9099 6.54303 16.9829 4.30204 15.3 2.61905C14.4748 1.78558 13.492 1.12475 12.4088 0.675098C11.3257 0.225444 10.1638 -0.00403209 8.99097 5.36125e-05ZM8.99997 1.50305C10.98 1.50305 12.834 2.27705 14.238 3.68104C14.927 4.36986 15.4733 5.18792 15.8455 6.08832C16.2177 6.98872 16.4085 7.95373 16.407 8.92803C16.407 13.014 13.077 16.335 8.99097 16.335C7.65898 16.335 6.35398 15.984 5.21999 15.3L4.94999 15.147L2.14199 15.885L2.88899 13.149L2.70899 12.861C1.96554 11.6808 1.57231 10.3139 1.575 8.91903C1.584 4.83304 4.90498 1.50305 8.99997 1.50305ZM5.83198 4.79704C5.68798 4.79704 5.44498 4.85104 5.23798 5.07604C5.03998 5.30104 4.45499 5.85004 4.45499 6.93903C4.45499 8.03703 5.25598 9.09003 5.35498 9.24303C5.48098 9.39603 6.93898 11.646 9.17997 12.6C9.71097 12.843 10.125 12.978 10.449 13.077C10.98 13.248 11.466 13.221 11.853 13.167C12.285 13.104 13.167 12.627 13.356 12.105C13.545 11.583 13.545 11.142 13.491 11.043C13.428 10.953 13.284 10.899 13.059 10.8C12.834 10.674 11.736 10.134 11.538 10.062C11.331 9.99002 11.205 9.95402 11.034 10.17C10.89 10.395 10.458 10.899 10.332 11.043C10.197 11.196 10.071 11.214 9.85497 11.106C9.62097 10.989 8.90097 10.755 8.05498 9.99902C7.38898 9.40502 6.94798 8.67603 6.81298 8.45103C6.70498 8.23503 6.80398 8.10003 6.91198 8.00103C7.01098 7.90203 7.15498 7.74003 7.24498 7.60503C7.36198 7.47903 7.39798 7.38003 7.46998 7.23603C7.54198 7.08303 7.50598 6.95703 7.45198 6.84903C7.39798 6.75003 6.94798 5.63404 6.75898 5.19304C6.57898 4.76104 6.39898 4.81504 6.25498 4.80604C6.12898 4.80604 5.98498 4.79704 5.83198 4.79704Z" fill="#EB2333"/>
</svg>
