<svg width="20" height="22" viewBox="0 0 20 22" fill="none" xmlns="http://www.w3.org/2000/svg">
<path d="M0 22V21.0833H19.6216V22H0ZM14.1459 20.6249H11.8643L11.8547 8.84977L9.12641 6.87493L2.7379 9.62508V20.6249H0V19.7083H1.82524V9.16678L9.12641 5.95831L12.777 8.7083V19.7082H14.1459V20.6249ZM4.08777 11.0509L7.30107 9.62508V11.4583L4.10686 12.8334L4.08777 11.0509ZM7.30107 13.75V15.5834L4.10686 16.4999L4.08777 14.7685L7.30107 13.75ZM4.10686 18.3334L7.30107 17.4166V19.7083H4.10686V18.3334ZM15.0584 2.29169V20.6249H16.4274V3.91432L15.0584 2.29169ZM9.12641 8.25008V20.6249H10.4953V9.16678L9.12641 8.25008ZM19.6216 20.6249H17.34V3.66669L15.0584 0.916623L6.38845 4.58331V5.95831L5.47576 6.87493V4.12494L15.5148 0L18.2527 3.66672V19.7083H19.6216V20.6249Z" fill="black"/>
</svg>
