<svg width="30" height="24" viewBox="0 0 30 24" fill="none" xmlns="http://www.w3.org/2000/svg">
<path fill-rule="evenodd" clip-rule="evenodd" d="M15.2647 14.6454L15.4126 14.6455L15.7436 14.6466C18.2732 14.6632 24.0541 14.9188 24.0541 18.837C24.0541 22.7296 18.4747 22.9834 15.783 23L14.7857 23C12.2559 22.9833 6.47389 22.7281 6.47389 18.8148C6.47389 14.9173 12.2559 14.6631 14.7857 14.6466L15.1167 14.6455C15.168 14.6454 15.2174 14.6454 15.2647 14.6454ZM15.2647 16.6108C12.1514 16.6108 8.43933 16.9935 8.43933 18.8148C8.43933 20.5949 11.9298 21.011 14.9801 21.0346L15.2647 21.0357C18.3779 21.0357 22.0887 20.6544 22.0887 18.837C22.0887 16.9974 18.3779 16.6108 15.2647 16.6108ZM25.6862 14.1137C28.8611 14.5893 29.528 16.0804 29.528 17.2479C29.528 17.9607 29.2476 19.2618 27.3739 19.9759C27.2586 20.0192 27.1406 20.0402 27.024 20.0402C26.6283 20.0402 26.2549 19.7991 26.1055 19.4073C25.9116 18.9002 26.1671 18.3315 26.6742 18.1389C27.5625 17.8009 27.5626 17.4274 27.5626 17.2479C27.5626 16.674 26.8327 16.2731 25.394 16.0582C24.8581 15.9769 24.4873 15.4777 24.5672 14.9392C24.6471 14.402 25.1451 14.0442 25.6862 14.1137ZM5.96077 14.9392C6.0407 15.4777 5.66989 15.9769 5.13398 16.0582C3.69528 16.2731 2.96544 16.674 2.96544 17.2479C2.96544 17.4274 2.96544 17.7995 3.85513 18.1389C4.36222 18.3315 4.61772 18.9002 4.4238 19.4073C4.27443 19.7991 3.90099 20.0402 3.50528 20.0402C3.38867 20.0402 3.27074 20.0192 3.15543 19.9759C1.2804 19.2605 1 17.9594 1 17.2479C1 16.0818 1.66694 14.5893 4.84309 14.1137C5.38424 14.0456 5.87954 14.402 5.96077 14.9392ZM15.2647 1C18.5666 1 21.2514 3.6861 21.2514 6.98674C21.2514 10.2874 18.5666 12.9735 15.2647 12.9735H15.2293C13.6307 12.9682 12.133 12.3419 11.0114 11.2098C9.8872 10.079 9.27267 8.57743 9.27917 6.9828C9.27917 3.6861 11.964 1 15.2647 1ZM15.2647 2.96544C13.0476 2.96544 11.2446 4.76972 11.2446 6.98674C11.2407 8.06118 11.6522 9.06617 12.4056 9.82483C13.159 10.5835 14.1627 11.0041 15.2319 11.008L15.2647 11.9907V11.008C17.4817 11.008 19.2859 9.20506 19.2859 6.98674C19.2859 4.76972 17.4817 2.96544 15.2647 2.96544ZM23.3741 2.28343C25.6776 2.66211 27.3508 4.63279 27.3508 6.96905C27.3456 9.32102 25.5885 11.3389 23.2627 11.6651C23.2168 11.6717 23.171 11.6743 23.1264 11.6743C22.6442 11.6743 22.2236 11.3192 22.1542 10.8279C22.0795 10.2893 22.4529 9.79273 22.9915 9.71804C24.3542 9.52674 25.3827 8.34486 25.3854 6.96643C25.3854 5.59979 24.4053 4.44411 23.0544 4.22267C22.5198 4.13488 22.1568 3.62911 22.2446 3.0932C22.3337 2.55728 22.8355 2.19826 23.3741 2.28343ZM8.28471 3.0932C8.3725 3.62911 8.00955 4.13488 7.47495 4.22267C6.12404 4.44411 5.14394 5.59979 5.14394 6.96905C5.14656 8.34486 6.17514 9.52805 7.53653 9.71804C8.07507 9.79273 8.4485 10.2893 8.37381 10.8279C8.30437 11.3192 7.88376 11.6743 7.40157 11.6743C7.35702 11.6743 7.31116 11.6717 7.2653 11.6651C4.93953 11.3389 3.18374 9.32102 3.1785 6.97167C3.1785 4.63279 4.85174 2.66211 7.15524 2.28343C7.70687 2.19695 8.19561 2.55991 8.28471 3.0932Z" fill="black" stroke="white" stroke-width="0.6"/>
</svg>
