<svg width="19" height="24" viewBox="0 0 19 24" fill="none" xmlns="http://www.w3.org/2000/svg">
<path d="M1.81156 1.20533C1.58667 1.31289 1.30311 1.55733 1.19556 1.73333C1 2.04622 1 2.18311 1 12C1 21.8364 1 21.9538 1.19556 22.2764C1.31289 22.4524 1.58667 22.6871 1.82133 22.7947C2.232 23 2.34933 23 9.45778 23C16.5662 23 16.6836 23 17.0942 22.7947C17.3289 22.6871 17.6027 22.4524 17.72 22.2764C17.9156 21.9538 17.9156 21.8267 17.9156 13.848V5.73244L13.1636 1H7.69778C2.33956 1 2.21244 1 1.81156 1.20533ZM12.6551 3.26844C12.6844 5.10667 12.792 5.42933 13.5058 5.93778L13.9262 6.23111L15.5787 6.26044L17.2311 6.29956V14.0338C17.2213 19.9689 17.2018 21.8169 17.104 21.9342C16.8107 22.3156 16.7618 22.3156 9.45778 22.3156C2.15378 22.3156 2.10489 22.3156 1.81156 21.9342C1.63556 21.7093 1.63556 2.29067 1.81156 2.06578C2.09511 1.69422 2.20267 1.69422 7.47289 1.68444H12.6258L12.6551 3.26844ZM15.1289 3.93333L16.7911 5.59556H15.5689C13.5938 5.59556 13.32 5.33156 13.32 3.42489C13.32 2.78933 13.3493 2.27111 13.3982 2.27111C13.4373 2.27111 14.2196 3.01422 15.1289 3.93333Z" fill="black"/>
<path d="M6.78018 6.79494C6.70392 6.87968 6.6785 7.27794 6.69545 8.17615L6.72087 9.43872H9.43244L9.45786 9.04046C9.52565 7.98125 8.50881 6.91357 7.26318 6.72715C6.97508 6.68479 6.85645 6.70173 6.78018 6.79494ZM7.84786 7.52368C8.2546 7.73552 8.58507 8.08294 8.74607 8.4812C8.82233 8.65915 8.88165 8.82015 8.88165 8.84557C8.88165 8.87099 8.51728 8.88793 8.07665 8.88793H7.27166V8.12531C7.27166 7.26947 7.29708 7.24405 7.84786 7.52368Z" fill="black"/>
<path d="M4.92449 8.00669C4.44149 8.18463 3.83139 8.73542 3.56871 9.26079C3.27213 9.837 3.24671 10.7691 3.50939 11.3538C4.18728 12.8282 6.03454 13.3112 7.34795 12.3621C7.96653 11.913 8.47495 10.8454 8.33937 10.2861C8.28853 10.0743 8.28006 10.0743 7.22932 10.0743H6.17012V9.07437C6.17012 8.41342 6.13622 8.04058 6.06843 7.97279C5.93286 7.83721 5.36512 7.85416 4.92449 8.00669ZM5.55154 9.52347C5.56002 10.2522 5.59391 10.5403 5.67865 10.5911C5.73796 10.6335 6.22096 10.6674 6.74633 10.6674C7.59369 10.6674 7.69537 10.6844 7.69537 10.8115C7.69537 11.108 7.30559 11.6419 6.9158 11.913C6.22096 12.3706 5.48375 12.3791 4.78891 11.9385C3.72971 11.269 3.61955 9.73531 4.57707 8.93031C4.88212 8.66763 5.31428 8.45579 5.44986 8.49816C5.5007 8.50663 5.54307 8.93879 5.55154 9.52347Z" fill="black"/>
<path d="M10.3896 8.98115C10.1862 9.09131 10.1947 9.37094 10.398 9.4811C10.6184 9.59973 14.9399 9.59973 15.1602 9.4811C15.245 9.43025 15.3212 9.3201 15.3212 9.22689C15.3212 9.13368 15.245 9.02352 15.1602 8.97268C14.9399 8.86252 10.5845 8.86252 10.3896 8.98115Z" fill="black"/>
<path d="M10.2627 10.3793C10.2373 10.4556 10.2457 10.5827 10.2966 10.659C10.3728 10.7776 10.6694 10.7946 12.6607 10.82C13.9148 10.8285 15.0249 10.82 15.135 10.7946C15.2876 10.7607 15.3299 10.7013 15.3045 10.5149L15.2791 10.2861L12.7963 10.2607C10.5593 10.2438 10.3135 10.2522 10.2627 10.3793Z" fill="black"/>
<path d="M10.3485 11.5741C10.196 11.6334 10.2129 11.9978 10.3739 12.0571C10.4502 12.0825 11.5687 12.1079 12.8652 12.1079C15.0175 12.1079 15.2378 12.091 15.3141 11.9639C15.3649 11.8706 15.3649 11.7605 15.3141 11.6673C15.2378 11.5232 15.0514 11.5148 12.8398 11.5232C11.5264 11.5232 10.3994 11.5486 10.3485 11.5741Z" fill="black"/>
<path d="M9.86431 14.4382C9.83889 14.5144 9.81347 15.6329 9.81347 16.9294C9.81347 18.6411 9.83889 19.302 9.91515 19.3783C9.99142 19.4546 10.7795 19.48 12.9572 19.48C15.5332 19.48 15.906 19.463 16.0077 19.3444C16.2111 19.0987 15.9992 18.9292 15.4145 18.9038L14.8977 18.8784V17.1074C14.8977 15.4974 14.8807 15.3279 14.7451 15.2516C14.6519 15.2008 14.5418 15.2008 14.4486 15.2516C14.3214 15.3279 14.3045 15.5228 14.3045 17.1074V18.8868H13.2961L13.2453 16.3871H12.7369L12.686 18.8868H11.6861L11.6607 18.2428C11.6438 17.7429 11.6014 17.5734 11.4913 17.5056C11.2201 17.3277 11.0845 17.5734 11.0845 18.2598V18.8868H10.4066L10.3897 16.6159L10.3643 14.3534L10.1439 14.328C9.99989 14.3111 9.89821 14.3534 9.86431 14.4382Z" fill="black"/>
<path d="M3.77204 16.3193C3.66188 16.421 3.71272 16.7515 3.8483 16.8023C4.05167 16.8786 8.56812 16.8616 8.69523 16.7769C8.76302 16.743 8.79691 16.6159 8.77996 16.5057L8.75454 16.3024L6.28871 16.2769C4.93293 16.2685 3.80593 16.2854 3.77204 16.3193Z" fill="black"/>
<path d="M3.81471 17.6073C3.74692 17.6412 3.71302 17.7683 3.72997 17.8785L3.75539 18.0819H8.75484L8.78026 17.8785C8.79721 17.7683 8.76332 17.6412 8.69553 17.6073C8.55147 17.5141 3.95876 17.5141 3.81471 17.6073Z" fill="black"/>
<path d="M3.79785 18.9292C3.74701 18.997 3.71311 19.1156 3.73006 19.2004C3.75548 19.3444 3.91648 19.3529 6.25521 19.3529C8.59393 19.3529 8.75493 19.3444 8.78035 19.2004C8.85662 18.8191 8.74646 18.8021 6.25521 18.8021C4.30627 18.8021 3.88259 18.8191 3.79785 18.9292Z" fill="black"/>
<path d="M1.81156 1.20533C1.58667 1.31289 1.30311 1.55733 1.19556 1.73333C1 2.04622 1 2.18311 1 12C1 21.8364 1 21.9538 1.19556 22.2764C1.31289 22.4524 1.58667 22.6871 1.82133 22.7947C2.232 23 2.34933 23 9.45778 23C16.5662 23 16.6836 23 17.0942 22.7947C17.3289 22.6871 17.6027 22.4524 17.72 22.2764C17.9156 21.9538 17.9156 21.8267 17.9156 13.848V5.73244L13.1636 1H7.69778C2.33956 1 2.21244 1 1.81156 1.20533ZM12.6551 3.26844C12.6844 5.10667 12.792 5.42933 13.5058 5.93778L13.9262 6.23111L15.5787 6.26044L17.2311 6.29956V14.0338C17.2213 19.9689 17.2018 21.8169 17.104 21.9342C16.8107 22.3156 16.7618 22.3156 9.45778 22.3156C2.15378 22.3156 2.10489 22.3156 1.81156 21.9342C1.63556 21.7093 1.63556 2.29067 1.81156 2.06578C2.09511 1.69422 2.20267 1.69422 7.47289 1.68444H12.6258L12.6551 3.26844ZM15.1289 3.93333L16.7911 5.59556H15.5689C13.5938 5.59556 13.32 5.33156 13.32 3.42489C13.32 2.78933 13.3493 2.27111 13.3982 2.27111C13.4373 2.27111 14.2196 3.01422 15.1289 3.93333Z" stroke="black" stroke-width="0.2"/>
<path d="M6.78018 6.79494C6.70392 6.87968 6.6785 7.27794 6.69545 8.17615L6.72087 9.43872H9.43244L9.45786 9.04046C9.52565 7.98125 8.50881 6.91357 7.26318 6.72715C6.97508 6.68479 6.85645 6.70173 6.78018 6.79494ZM7.84786 7.52368C8.2546 7.73552 8.58507 8.08294 8.74607 8.4812C8.82233 8.65915 8.88165 8.82015 8.88165 8.84557C8.88165 8.87099 8.51728 8.88793 8.07665 8.88793H7.27166V8.12531C7.27166 7.26947 7.29708 7.24405 7.84786 7.52368Z" stroke="black" stroke-width="0.2"/>
<path d="M4.92449 8.00669C4.44149 8.18463 3.83139 8.73542 3.56871 9.26079C3.27213 9.837 3.24671 10.7691 3.50939 11.3538C4.18728 12.8282 6.03454 13.3112 7.34795 12.3621C7.96653 11.913 8.47495 10.8454 8.33937 10.2861C8.28853 10.0743 8.28006 10.0743 7.22932 10.0743H6.17012V9.07437C6.17012 8.41342 6.13622 8.04058 6.06843 7.97279C5.93286 7.83721 5.36512 7.85416 4.92449 8.00669ZM5.55154 9.52347C5.56002 10.2522 5.59391 10.5403 5.67865 10.5911C5.73796 10.6335 6.22096 10.6674 6.74633 10.6674C7.59369 10.6674 7.69537 10.6844 7.69537 10.8115C7.69537 11.108 7.30559 11.6419 6.9158 11.913C6.22096 12.3706 5.48375 12.3791 4.78891 11.9385C3.72971 11.269 3.61955 9.73531 4.57707 8.93031C4.88212 8.66763 5.31428 8.45579 5.44986 8.49816C5.5007 8.50663 5.54307 8.93879 5.55154 9.52347Z" stroke="black" stroke-width="0.2"/>
<path d="M10.3896 8.98115C10.1862 9.09131 10.1947 9.37094 10.398 9.4811C10.6184 9.59973 14.9399 9.59973 15.1602 9.4811C15.245 9.43025 15.3212 9.3201 15.3212 9.22689C15.3212 9.13368 15.245 9.02352 15.1602 8.97268C14.9399 8.86252 10.5845 8.86252 10.3896 8.98115Z" stroke="black" stroke-width="0.2"/>
<path d="M10.2627 10.3793C10.2373 10.4556 10.2457 10.5827 10.2966 10.659C10.3728 10.7776 10.6694 10.7946 12.6607 10.82C13.9148 10.8285 15.0249 10.82 15.135 10.7946C15.2876 10.7607 15.3299 10.7013 15.3045 10.5149L15.2791 10.2861L12.7963 10.2607C10.5593 10.2438 10.3135 10.2522 10.2627 10.3793Z" stroke="black" stroke-width="0.2"/>
<path d="M10.3485 11.5741C10.196 11.6334 10.2129 11.9978 10.3739 12.0571C10.4502 12.0825 11.5687 12.1079 12.8652 12.1079C15.0175 12.1079 15.2378 12.091 15.3141 11.9639C15.3649 11.8706 15.3649 11.7605 15.3141 11.6673C15.2378 11.5232 15.0514 11.5148 12.8398 11.5232C11.5264 11.5232 10.3994 11.5486 10.3485 11.5741Z" stroke="black" stroke-width="0.2"/>
<path d="M9.86431 14.4382C9.83889 14.5144 9.81347 15.6329 9.81347 16.9294C9.81347 18.6411 9.83889 19.302 9.91515 19.3783C9.99142 19.4546 10.7795 19.48 12.9572 19.48C15.5332 19.48 15.906 19.463 16.0077 19.3444C16.2111 19.0987 15.9992 18.9292 15.4145 18.9038L14.8977 18.8784V17.1074C14.8977 15.4974 14.8807 15.3279 14.7451 15.2516C14.6519 15.2008 14.5418 15.2008 14.4486 15.2516C14.3214 15.3279 14.3045 15.5228 14.3045 17.1074V18.8868H13.2961L13.2453 16.3871H12.7369L12.686 18.8868H11.6861L11.6607 18.2428C11.6438 17.7429 11.6014 17.5734 11.4913 17.5056C11.2201 17.3277 11.0845 17.5734 11.0845 18.2598V18.8868H10.4066L10.3897 16.6159L10.3643 14.3534L10.1439 14.328C9.99989 14.3111 9.89821 14.3534 9.86431 14.4382Z" stroke="black" stroke-width="0.2"/>
<path d="M3.77204 16.3193C3.66188 16.421 3.71272 16.7515 3.8483 16.8023C4.05167 16.8786 8.56812 16.8616 8.69523 16.7769C8.76302 16.743 8.79691 16.6159 8.77996 16.5057L8.75454 16.3024L6.28871 16.2769C4.93293 16.2685 3.80593 16.2854 3.77204 16.3193Z" stroke="black" stroke-width="0.2"/>
<path d="M3.81471 17.6073C3.74692 17.6412 3.71302 17.7683 3.72997 17.8785L3.75539 18.0819H8.75484L8.78026 17.8785C8.79721 17.7683 8.76332 17.6412 8.69553 17.6073C8.55147 17.5141 3.95876 17.5141 3.81471 17.6073Z" stroke="black" stroke-width="0.2"/>
<path d="M3.79785 18.9292C3.74701 18.997 3.71311 19.1156 3.73006 19.2004C3.75548 19.3444 3.91648 19.3529 6.25521 19.3529C8.59393 19.3529 8.75493 19.3444 8.78035 19.2004C8.85662 18.8191 8.74646 18.8021 6.25521 18.8021C4.30627 18.8021 3.88259 18.8191 3.79785 18.9292Z" stroke="black" stroke-width="0.2"/>
</svg>
