<svg width="24" height="29" viewBox="0 0 24 29" fill="none" xmlns="http://www.w3.org/2000/svg">
<path d="M22.8319 13.6364C21.8068 12.4393 21.341 11.4019 21.341 9.63942V9.04015C21.341 6.74343 20.8123 5.26363 19.6631 3.78383C17.8918 1.48569 14.9098 0.100586 11.9906 0.100586H11.8665C9.00864 0.100586 6.12013 1.42209 4.31812 3.62694C3.10609 5.13642 2.51611 6.67982 2.51611 9.04015V9.63942C2.51611 11.4019 2.08096 12.4393 1.02514 13.6364C0.248264 14.5184 0 15.6519 0 16.8787C0 18.1069 0.40308 19.2701 1.21203 20.2157C2.26785 21.3492 3.75883 22.0728 5.28189 22.1986C7.48698 22.4502 9.69206 22.5449 11.9292 22.5449C14.165 22.5449 16.3701 22.3866 18.5766 22.1986C20.0982 22.0728 21.5892 21.3492 22.645 20.2157C23.4526 19.2701 23.8571 18.1069 23.8571 16.8787C23.8571 15.6519 23.6088 14.5184 22.8319 13.6364Z" fill="#272B4A" fill-opacity="0.74"/>
<path opacity="0.4" d="M14.7525 24.2779C14.0509 24.1281 9.77602 24.1281 9.07447 24.2779C8.47473 24.4164 7.82617 24.7386 7.82617 25.4453C7.86104 26.1195 8.25575 26.7145 8.80249 27.0919L8.8011 27.0933C9.50823 27.6445 10.3381 27.9951 11.207 28.1208C11.6701 28.1844 12.1415 28.1816 12.6213 28.1208C13.4888 27.9951 14.3187 27.6445 15.0258 27.0933L15.0244 27.0919C15.5712 26.7145 15.9659 26.1195 16.0008 25.4453C16.0008 24.7386 15.3522 24.4164 14.7525 24.2779Z" fill="#272B4A" fill-opacity="0.52"/>
</svg>
